<?xml version="1.0" standalone="no"?>
<!DOCTYPE svg PUBLIC "-//W3C//DTD SVG 20010904//EN"
 "http://www.w3.org/TR/2001/REC-SVG-20010904/DTD/svg10.dtd">
<svg version="1.0" xmlns="http://www.w3.org/2000/svg"
 width="64.000000pt" height="64.000000pt" viewBox="0 0 64.000000 64.000000"
 preserveAspectRatio="xMidYMid meet">

<g transform="translate(0.000000,64.000000) scale(0.100000,-0.100000)"
fill="#000000" stroke="none">
<path d="M168 469 c-76 -76 -138 -145 -138 -152 0 -14 131 -147 145 -147 5 0
40 30 77 67 l68 67 68 -67 c37 -37 72 -67 78 -67 15 0 144 134 144 150 0 20
-271 290 -290 289 -8 0 -77 -63 -152 -140z m217 51 l60 -60 -63 -63 -62 -62
-62 62 -63 63 60 60 c33 33 62 60 65 60 3 0 32 -27 65 -60z m-140 -140 l60
-60 -63 -63 -62 -62 -62 62 -63 63 60 60 c33 33 62 60 65 60 3 0 32 -27 65
-60z m280 0 l60 -60 -63 -63 -62 -62 -62 62 -63 63 60 60 c33 33 62 60 65 60
3 0 32 -27 65 -60z"/>
</g>
</svg>
